<mxfile host="app.diagrams.net" modified="2022-01-20T02:57:32.321Z" agent="5.0 (Macintosh; Intel Mac OS X 10_12_6) AppleWebKit/537.36 (KHTML, like Gecko) Chrome/97.0.4692.71 Safari/537.36" etag="X8zlVXH8__yer_GlrYHQ" version="16.4.2" type="github">
  <diagram id="kgpKYQtTHZ0yAKxKKP6v" name="Page-1">
    <mxGraphModel dx="1056" dy="570" grid="1" gridSize="10" guides="1" tooltips="1" connect="1" arrows="1" fold="1" page="1" pageScale="1" pageWidth="850" pageHeight="1100" math="0" shadow="0">
      <root>
        <mxCell id="0" />
        <mxCell id="1" parent="0" />
        <mxCell id="3kRzph6qnzRTGQKdKOtc-10" value="开发流程规范协作图" style="swimlane;childLayout=stackLayout;resizeParent=1;resizeParentMax=0;startSize=20;fillColor=#fff2cc;strokeColor=#d6b656;" vertex="1" parent="1">
          <mxGeometry x="80" y="80" width="730" height="480" as="geometry" />
        </mxCell>
        <mxCell id="3kRzph6qnzRTGQKdKOtc-11" value="需求分析" style="swimlane;startSize=20;" vertex="1" parent="3kRzph6qnzRTGQKdKOtc-10">
          <mxGeometry y="20" width="130" height="460" as="geometry" />
        </mxCell>
        <mxCell id="3kRzph6qnzRTGQKdKOtc-17" value="需求评审" style="rounded=0;whiteSpace=wrap;html=1;" vertex="1" parent="3kRzph6qnzRTGQKdKOtc-11">
          <mxGeometry x="32.5" y="40" width="65" height="30" as="geometry" />
        </mxCell>
        <mxCell id="3kRzph6qnzRTGQKdKOtc-18" value="是否通过" style="rhombus;whiteSpace=wrap;html=1;rounded=0;" vertex="1" parent="3kRzph6qnzRTGQKdKOtc-11">
          <mxGeometry x="32.5" y="100" width="65" height="35" as="geometry" />
        </mxCell>
        <mxCell id="3kRzph6qnzRTGQKdKOtc-19" value="" style="edgeStyle=orthogonalEdgeStyle;rounded=0;orthogonalLoop=1;jettySize=auto;html=1;" edge="1" parent="3kRzph6qnzRTGQKdKOtc-11" source="3kRzph6qnzRTGQKdKOtc-17" target="3kRzph6qnzRTGQKdKOtc-18">
          <mxGeometry relative="1" as="geometry" />
        </mxCell>
        <mxCell id="3kRzph6qnzRTGQKdKOtc-12" value="设计" style="swimlane;startSize=20;" vertex="1" parent="3kRzph6qnzRTGQKdKOtc-10">
          <mxGeometry x="130" y="20" width="120" height="460" as="geometry" />
        </mxCell>
        <mxCell id="3kRzph6qnzRTGQKdKOtc-23" value="系统设计" style="whiteSpace=wrap;html=1;rounded=0;" vertex="1" parent="3kRzph6qnzRTGQKdKOtc-12">
          <mxGeometry x="20" y="102.5" width="80" height="30" as="geometry" />
        </mxCell>
        <mxCell id="3kRzph6qnzRTGQKdKOtc-13" value="编码实现" style="swimlane;startSize=20;" vertex="1" parent="3kRzph6qnzRTGQKdKOtc-10">
          <mxGeometry x="250" y="20" width="120" height="460" as="geometry">
            <mxRectangle x="240" y="20" width="30" height="460" as="alternateBounds" />
          </mxGeometry>
        </mxCell>
        <mxCell id="3kRzph6qnzRTGQKdKOtc-20" value="提测" style="swimlane;startSize=20;" vertex="1" parent="3kRzph6qnzRTGQKdKOtc-10">
          <mxGeometry x="370" y="20" width="120" height="460" as="geometry">
            <mxRectangle x="240" y="20" width="30" height="460" as="alternateBounds" />
          </mxGeometry>
        </mxCell>
        <mxCell id="3kRzph6qnzRTGQKdKOtc-21" value="验收" style="swimlane;startSize=20;" vertex="1" parent="3kRzph6qnzRTGQKdKOtc-10">
          <mxGeometry x="490" y="20" width="120" height="460" as="geometry">
            <mxRectangle x="240" y="20" width="30" height="460" as="alternateBounds" />
          </mxGeometry>
        </mxCell>
        <mxCell id="3kRzph6qnzRTGQKdKOtc-22" value="发布上线" style="swimlane;startSize=20;" vertex="1" parent="3kRzph6qnzRTGQKdKOtc-10">
          <mxGeometry x="610" y="20" width="120" height="460" as="geometry">
            <mxRectangle x="240" y="20" width="30" height="460" as="alternateBounds" />
          </mxGeometry>
        </mxCell>
        <mxCell id="3kRzph6qnzRTGQKdKOtc-24" value="" style="edgeStyle=orthogonalEdgeStyle;rounded=0;orthogonalLoop=1;jettySize=auto;html=1;" edge="1" parent="3kRzph6qnzRTGQKdKOtc-10" source="3kRzph6qnzRTGQKdKOtc-18" target="3kRzph6qnzRTGQKdKOtc-23">
          <mxGeometry relative="1" as="geometry" />
        </mxCell>
        <mxCell id="3kRzph6qnzRTGQKdKOtc-25" value="是" style="edgeLabel;html=1;align=center;verticalAlign=middle;resizable=0;points=[];" vertex="1" connectable="0" parent="3kRzph6qnzRTGQKdKOtc-24">
          <mxGeometry x="-0.0469" relative="1" as="geometry">
            <mxPoint as="offset" />
          </mxGeometry>
        </mxCell>
        <mxCell id="3kRzph6qnzRTGQKdKOtc-27" value="" style="edgeStyle=orthogonalEdgeStyle;rounded=0;orthogonalLoop=1;jettySize=auto;html=1;" edge="1" parent="1" source="3kRzph6qnzRTGQKdKOtc-18">
          <mxGeometry relative="1" as="geometry">
            <mxPoint x="145" y="314.9999999999999" as="targetPoint" />
          </mxGeometry>
        </mxCell>
      </root>
    </mxGraphModel>
  </diagram>
</mxfile>
